# xmcd
#
# Track frame offsets: 
#        150
#        24312
#        67787
#        91025
#        108962
#        122550
#        137725
#        156362
#
# Disc length: 2296 seconds
#
# Revision: 0
# Processed by: cddbd v1.5PL3 Copyright (c) Steve Scherf et al.
# Submitted via: ExactAudioCopy v0.95a4
#
DISCID=5808f608
DTITLE=Fillmoe Sims - It's Gong To Be My Time After While
DYEAR=1996
DGENRE=Blues
TTITLE0=I'm Broke Baby
TTITLE1=Slippin' Out
TTITLE2=Slow Blues
TTITLE3=All The People I Could Have Been
TTITLE4=I Hear You Cryin'
TTITLE5=Cutin-n-Loosen
TTITLE6=It's Going To Be My Time After While
TTITLE7=Instrumental
EXTD=
EXTT0=
EXTT1=
EXTT2=
EXTT3=
EXTT4=
EXTT5=
EXTT6=
EXTT7=
PLAYORDER=
